# xmcd
#
# Track frame offsets:
#	150
#	24072
#	48183
#	77587
#	112934
#	197571
#
# Disc length: 3540 seconds
#
# Revision: 1
# Processed by: cddbd v1.5.2PL0 Copyright (c) Steve Scherf et al.
# Submitted via: audiograbber 1.83.01
#
DISCID=350dd206
DTITLE=Grateful Dead - 95-06-30 Three Rivers Stadium, Pittsburgh PA
DYEAR=1900
DGENRE=
TTITLE0=Rain
TTITLE1=Box Of Rain
TTITLE2=Samba In The Rain
TTITLE3=Looks Like Rain
TTITLE4=Terrapin Station
TTITLE5=Drums
EXTD=
EXTT0=
EXTT1=
EXTT2=
EXTT3=
EXTT4=
EXTT5=
PLAYORDER=
